<mxfile host="app.diagrams.net" modified="2023-08-12T09:53:20.997Z" agent="Mozilla/5.0 (Windows NT 10.0; Win64; x64) AppleWebKit/537.36 (KHTML, like Gecko) Chrome/115.0.0.0 Safari/537.36 Edg/115.0.1901.203" etag="HEFNc-iAzD8AfHBj3h4Q" version="21.6.8" type="github">
  <diagram name="Page-1" id="26jy-_EbFpemDyZncVNP">
    <mxGraphModel dx="1211" dy="665" grid="1" gridSize="10" guides="1" tooltips="1" connect="1" arrows="1" fold="1" page="1" pageScale="1" pageWidth="850" pageHeight="1100" math="0" shadow="0">
      <root>
        <mxCell id="0" />
        <mxCell id="1" parent="0" />
        <mxCell id="YX3MOx2NHv53Jm5qOJph-4" value="Login / Sign Up Page" style="whiteSpace=wrap;html=1;aspect=fixed;" vertex="1" parent="1">
          <mxGeometry x="280" y="50" width="100" height="100" as="geometry" />
        </mxCell>
        <mxCell id="YX3MOx2NHv53Jm5qOJph-5" value="Home page with product description and &lt;font color=&quot;#006633&quot;&gt;login &lt;/font&gt;as call to action" style="whiteSpace=wrap;html=1;aspect=fixed;" vertex="1" parent="1">
          <mxGeometry x="80" y="60" width="80" height="80" as="geometry" />
        </mxCell>
        <mxCell id="YX3MOx2NHv53Jm5qOJph-6" value="" style="shape=flexArrow;endArrow=classic;html=1;rounded=0;exitX=1;exitY=0.5;exitDx=0;exitDy=0;entryX=-0.007;entryY=0.088;entryDx=0;entryDy=0;entryPerimeter=0;" edge="1" parent="1" source="YX3MOx2NHv53Jm5qOJph-5" target="YX3MOx2NHv53Jm5qOJph-4">
          <mxGeometry width="50" height="50" relative="1" as="geometry">
            <mxPoint x="440" y="120" as="sourcePoint" />
            <mxPoint x="300" y="110" as="targetPoint" />
            <Array as="points">
              <mxPoint x="220" y="90" />
            </Array>
          </mxGeometry>
        </mxCell>
        <mxCell id="YX3MOx2NHv53Jm5qOJph-9" value="Dashboard with create new event&lt;br style=&quot;border-color: var(--border-color);&quot;&gt;&lt;span style=&quot;&quot;&gt;and manage old events&lt;/span&gt;" style="rounded=0;whiteSpace=wrap;html=1;" vertex="1" parent="1">
          <mxGeometry x="450" y="30" width="220" height="120" as="geometry" />
        </mxCell>
        <mxCell id="YX3MOx2NHv53Jm5qOJph-11" value="" style="endArrow=classic;html=1;rounded=0;exitX=1;exitY=0.5;exitDx=0;exitDy=0;entryX=-0.028;entryY=0.591;entryDx=0;entryDy=0;entryPerimeter=0;" edge="1" parent="1" source="YX3MOx2NHv53Jm5qOJph-4" target="YX3MOx2NHv53Jm5qOJph-9">
          <mxGeometry width="50" height="50" relative="1" as="geometry">
            <mxPoint x="440" y="120" as="sourcePoint" />
            <mxPoint x="490" y="70" as="targetPoint" />
          </mxGeometry>
        </mxCell>
        <mxCell id="YX3MOx2NHv53Jm5qOJph-12" value="Create new event event description then google drive access with all the pdfs" style="whiteSpace=wrap;html=1;aspect=fixed;" vertex="1" parent="1">
          <mxGeometry x="230" y="240" width="140" height="140" as="geometry" />
        </mxCell>
        <mxCell id="YX3MOx2NHv53Jm5qOJph-14" value="" style="endArrow=classic;html=1;rounded=0;entryX=0.571;entryY=0;entryDx=0;entryDy=0;entryPerimeter=0;exitX=0.347;exitY=1.005;exitDx=0;exitDy=0;exitPerimeter=0;" edge="1" parent="1" source="YX3MOx2NHv53Jm5qOJph-9" target="YX3MOx2NHv53Jm5qOJph-12">
          <mxGeometry width="50" height="50" relative="1" as="geometry">
            <mxPoint x="440" y="180" as="sourcePoint" />
            <mxPoint x="490" y="130" as="targetPoint" />
          </mxGeometry>
        </mxCell>
      </root>
    </mxGraphModel>
  </diagram>
</mxfile>
